HIERARCHY
ROOT Hips
{
	OFFSET 0.000000 103.266502 0.000000
	CHANNELS 6 Xposition Yposition Zposition Xrotation Yrotation Zrotation 
	JOINT Spine
	{
		OFFSET -0.002400 12.777504 0.315300
		CHANNELS 3 Xrotation Yrotation Zrotation
		JOINT Spine1
		{
			OFFSET -0.002067 5.816869 0.032633
			CHANNELS 3 Xrotation Yrotation Zrotation
			JOINT Spine1_split
			{
				OFFSET -0.002067 5.816869 0.032633
				CHANNELS 3 Xrotation Yrotation Zrotation
				JOINT Spine2
				{
					OFFSET -0.002067 5.816869 0.032633
					CHANNELS 3 Xrotation Yrotation Zrotation
					JOINT Neck
					{
						OFFSET -0.003700 21.199493 -0.826900
						CHANNELS 3 Xrotation Yrotation Zrotation
						JOINT Head
						{
							OFFSET 0.000000 20.442200 4.834800
							CHANNELS 3 Xrotation Yrotation Zrotation
							JOINT HeadTop_End
							{
								OFFSET 0.000000 34.668396 4.968400
								CHANNELS 3 Xrotation Yrotation Zrotation
								End Site
								{
									OFFSET 0.000000 0.000000 0.000000
								}
							}
						}
					}
					JOINT LeftShoulder
					{
						OFFSET 3.288150 8.794197 -1.372250
						CHANNELS 3 Xrotation Yrotation Zrotation
						JOINT LeftShoulder_split
						{
							OFFSET 3.288150 8.794197 -1.372250
							CHANNELS 3 Xrotation Yrotation Zrotation
							JOINT LeftArm
							{
								OFFSET 11.953299 -2.279007 -0.146200
								CHANNELS 3 Xrotation Yrotation Zrotation
								JOINT LeftForeArm
								{
									OFFSET 18.448900 0.000000 0.000000
									CHANNELS 3 Xrotation Yrotation Zrotation
									JOINT LeftHand
									{
										OFFSET 29.527798 0.000000 0.000000
										CHANNELS 3 Xrotation Yrotation Zrotation
										JOINT LeftHandThumb1
										{
											OFFSET 10.739754 -2.369614 9.225399
											CHANNELS 3 Xrotation Yrotation Zrotation
											JOINT LeftHandThumb2
											{
												OFFSET 4.926170 -2.844131 2.844125
												CHANNELS 3 Xrotation Yrotation Zrotation
												JOINT LeftHandThumb3
												{
													OFFSET 4.614891 -2.664413 2.664409
													CHANNELS 3 Xrotation Yrotation Zrotation
													JOINT LeftHandThumb4
													{
														OFFSET 4.432465 -2.559082 2.559083
														CHANNELS 3 Xrotation Yrotation Zrotation
														End Site
														{
															OFFSET 0.000000 0.000000 0.000000
														}
													}
												}
											}
										}
										JOINT LeftHandIndex1
										{
											OFFSET 26.467674 0.187653 6.405298
											CHANNELS 3 Xrotation Yrotation Zrotation
											JOINT LeftHandIndex2
											{
												OFFSET 8.792900 0.000000 0.000000
												CHANNELS 3 Xrotation Yrotation Zrotation
												JOINT LeftHandIndex3
												{
													OFFSET 10.075203 0.000000 0.000000
													CHANNELS 3 Xrotation Yrotation Zrotation
													End Site
													{
														OFFSET 0.000000 0.000000 0.000000
													}
												}
											}
										}
										JOINT LeftHandMiddle1
										{
											OFFSET 25.764404 0.000000 0.000000
											CHANNELS 3 Xrotation Yrotation Zrotation
											JOINT LeftHandMiddle2
											{
												OFFSET 9.393974 0.000000 0.000000
												CHANNELS 3 Xrotation Yrotation Zrotation
												JOINT LeftHandMiddle3
												{
													OFFSET 10.771950 0.000000 0.000000
													CHANNELS 3 Xrotation Yrotation Zrotation
													End Site
													{
														OFFSET 0.000000 0.000000 0.000000
													}
												}
											}
										}
										JOINT LeftHandRing1
										{
											OFFSET 24.660927 0.144547 -6.225808
											CHANNELS 3 Xrotation Yrotation Zrotation
											JOINT LeftHandRing2
											{
												OFFSET 9.393799 0.000000 0.000000
												CHANNELS 3 Xrotation Yrotation Zrotation
												JOINT LeftHandRing3
												{
													OFFSET 9.928497 0.000000 0.000000
													CHANNELS 3 Xrotation Yrotation Zrotation
													End Site
													{
														OFFSET 0.000000 0.000000 0.000000
													}
												}
											}
										}
										JOINT LeftHandPinky1
										{
											OFFSET 23.655350 0.125290 -12.815412
											CHANNELS 3 Xrotation Yrotation Zrotation
											JOINT LeftHandPinky2
											{
												OFFSET 8.425102 0.000000 0.000000
												CHANNELS 3 Xrotation Yrotation Zrotation
												JOINT LeftHandPinky3
												{
													OFFSET 8.147003 0.000000 0.000000
													CHANNELS 3 Xrotation Yrotation Zrotation
													End Site
													{
														OFFSET 0.000000 0.000000 0.000000
													}
												}
											}
										}
									}
								}
							}
						}
					}
					JOINT RightShoulder
					{
						OFFSET -3.249400 8.794197 -1.372250
						CHANNELS 3 Xrotation Yrotation Zrotation
						JOINT RightShoulder_split
						{
							OFFSET -3.249400 8.794197 -1.372250
							CHANNELS 3 Xrotation Yrotation Zrotation
							JOINT RightArm
							{
								OFFSET -11.953299 -2.279007 -0.146200
								CHANNELS 3 Xrotation Yrotation Zrotation
								JOINT RightForeArm
								{
									OFFSET -18.448900 0.000000 0.000000
									CHANNELS 3 Xrotation Yrotation Zrotation
									JOINT RightHand
									{
										OFFSET -29.527802 0.000000 0.000000
										CHANNELS 3 Xrotation Yrotation Zrotation
										JOINT RightHandThumb1
										{
											OFFSET -10.739754 -2.369614 9.225399
											CHANNELS 3 Xrotation Yrotation Zrotation
											JOINT RightHandThumb2
											{
												OFFSET -4.926170 -2.844131 2.844125
												CHANNELS 3 Xrotation Yrotation Zrotation
												JOINT RightHandThumb3
												{
													OFFSET -4.614891 -2.664413 2.664409
													CHANNELS 3 Xrotation Yrotation Zrotation
													JOINT RightHandThumb4
													{
														OFFSET -4.432465 -2.559082 2.559083
														CHANNELS 3 Xrotation Yrotation Zrotation
														End Site
														{
															OFFSET 0.000000 0.000000 0.000000
														}
													}
												}
											}
										}
										JOINT RightHandIndex1
										{
											OFFSET -26.467674 0.187653 6.405298
											CHANNELS 3 Xrotation Yrotation Zrotation
											JOINT RightHandIndex2
											{
												OFFSET -8.792900 0.000000 0.000000
												CHANNELS 3 Xrotation Yrotation Zrotation
												JOINT RightHandIndex3
												{
													OFFSET -10.075203 0.000000 0.000000
													CHANNELS 3 Xrotation Yrotation Zrotation
													End Site
													{
														OFFSET 0.000000 0.000000 0.000000
													}
												}
											}
										}
										JOINT RightHandMiddle1
										{
											OFFSET -25.764404 0.000000 0.000000
											CHANNELS 3 Xrotation Yrotation Zrotation
											JOINT RightHandMiddle2
											{
												OFFSET -9.393974 0.000000 0.000000
												CHANNELS 3 Xrotation Yrotation Zrotation
												JOINT RightHandMiddle3
												{
													OFFSET -10.771950 0.000000 0.000000
													CHANNELS 3 Xrotation Yrotation Zrotation
													End Site
													{
														OFFSET 0.000000 0.000000 0.000000
													}
												}
											}
										}
										JOINT RightHandRing1
										{
											OFFSET -24.660927 0.144547 -6.225808
											CHANNELS 3 Xrotation Yrotation Zrotation
											JOINT RightHandRing2
											{
												OFFSET -9.393799 0.000000 0.000000
												CHANNELS 3 Xrotation Yrotation Zrotation
												JOINT RightHandRing3
												{
													OFFSET -9.928497 0.000000 0.000000
													CHANNELS 3 Xrotation Yrotation Zrotation
													End Site
													{
														OFFSET 0.000000 0.000000 0.000000
													}
												}
											}
										}
										JOINT RightHandPinky1
										{
											OFFSET -23.655350 0.125290 -12.815412
											CHANNELS 3 Xrotation Yrotation Zrotation
											JOINT RightHandPinky2
											{
												OFFSET -8.425102 0.000000 0.000000
												CHANNELS 3 Xrotation Yrotation Zrotation
												JOINT RightHandPinky3
												{
													OFFSET -8.147003 0.000000 0.000000
													CHANNELS 3 Xrotation Yrotation Zrotation
													End Site
													{
														OFFSET 0.000000 0.000000 0.000000
													}
												}
											}
										}
									}
								}
							}
						}
					}
				}
			}
		}
	}
	JOINT LeftUpLeg
	{
		OFFSET 11.394100 -6.187798 -0.413800
		CHANNELS 3 Xrotation Yrotation Zrotation
		JOINT LeftLeg
		{
			OFFSET 0.430247 -32.302673 3.732800
			CHANNELS 3 Xrotation Yrotation Zrotation
			JOINT LeftFoot
			{
				OFFSET -0.430247 -48.264931 -6.423300
				CHANNELS 3 Xrotation Yrotation Zrotation
				JOINT LeftToeBase
				{
					OFFSET 4.230900 -16.068199 23.438400
					CHANNELS 3 Xrotation Yrotation Zrotation
					JOINT LeftToe_End
					{
						OFFSET 4.510700 0.695400 19.974600
						CHANNELS 3 Xrotation Yrotation Zrotation
						End Site
						{
							OFFSET 0.000000 0.000000 0.000000
						}
					}
				}
			}
		}
	}
	JOINT RightUpLeg
	{
		OFFSET -11.333700 -6.187798 -0.413800
		CHANNELS 3 Xrotation Yrotation Zrotation
		JOINT RightLeg
		{
			OFFSET -0.430392 -32.302628 3.733000
			CHANNELS 3 Xrotation Yrotation Zrotation
			JOINT RightFoot
			{
				OFFSET 0.430392 -48.264973 -6.423500
				CHANNELS 3 Xrotation Yrotation Zrotation
				JOINT RightToeBase
				{
					OFFSET -4.230900 -16.068199 23.438400
					CHANNELS 3 Xrotation Yrotation Zrotation
					JOINT RightToe_End
					{
						OFFSET -4.510700 0.695400 19.974600
						CHANNELS 3 Xrotation Yrotation Zrotation
						End Site
						{
							OFFSET 0.000000 0.000000 0.000000
						}
					}
				}
			}
		}
	}
}
MOTION
Frames: 4
Frame Time: 0.016667
-0.281802 95.269897 -0.167123 -10.820755 -54.588877 -6.746370 5.270416 0.485967 0.367956 4.893952 1.120461 0.299612 0.000000 0.000000 0.000000 8.444750 1.036566 0.033103 2.537416 5.572968 -0.185904 2.372532 37.187190 -7.338933 0.000000 -0.000000 0.000001 9.150572 -24.592615 -2.246827 0.000000 0.000000 0.000000 -26.053173 8.217182 -60.618810 -91.270165 13.114499 -86.117177 -27.757930 -7.625870 -6.300474 0.699126 9.503387 -2.418116 5.975194 12.647536 1.348329 -23.873558 -17.664220 1.604932 0.000002 0.000001 0.000002 9.479714 -1.289770 -20.785565 0.709479 2.796410 -28.467072 -0.000002 0.000001 -0.000002 10.058158 -1.800596 -20.644713 1.774262 4.200483 -45.782075 -0.000001 0.000001 0.000000 1.254225 -0.073705 -17.945779 3.754102 5.463639 -68.965294 -0.000000 0.000000 0.000000 -7.938248 1.609088 -6.495671 2.210569 4.583647 -51.475147 -0.000000 0.000003 -0.000000 10.411190 20.330618 -1.369223 0.000000 0.000000 0.000000 3.446564 33.597021 47.887846 68.289789 116.117396 -81.856252 -10.139721 21.397002 14.282960 13.942491 -4.273689 -5.300355 7.113165 -20.767453 -2.619509 -3.463295 -24.899771 -18.660456 0.000002 -0.000002 0.000001 0.357760 -5.832700 5.175846 0.094364 -0.933668 11.539905 0.000000 -0.000001 -0.000001 3.764088 -12.080456 1.143782 5.714287 -4.535842 103.133575 0.000000 -0.000000 -0.000001 -12.155600 -12.623917 9.228345 6.566867 -4.248470 114.232325 0.000001 -0.000000 0.000001 -17.635767 -10.496859 3.325423 4.993642 -4.645044 94.147942 0.000000 0.000000 0.000001 -25.341272 11.913175 17.403843 28.595880 14.675954 0.059877 5.962514 0.011468 -9.561055 -0.208564 0.099063 0.223846 0.000000 -0.000001 0.000000 -24.161051 -17.086932 -23.198198 37.372838 -3.870264 -3.232965 -8.533354 1.746678 11.585608 1.533490 2.192296 1.956867 0.000000 0.000000 -0.000000 
-0.247806 95.134361 0.428722 -10.383850 -53.169044 -6.311241 5.215074 0.402568 0.498024 4.881396 0.959845 0.315641 0.000000 0.000000 0.000000 8.443274 1.126751 0.051354 2.560039 5.635927 -0.196398 2.510865 38.008101 -7.338060 -0.000000 0.000000 -0.000000 8.936023 -24.743224 -2.968067 0.000000 0.000000 0.000000 -26.604866 8.959830 -60.009783 -91.306058 12.799950 -85.897606 -27.851654 -7.038001 -5.777686 0.699125 9.503383 -2.418117 5.975194 12.647541 1.348333 -23.873558 -17.664222 1.604931 -0.000000 -0.000001 0.000001 9.479710 -1.289778 -20.785565 0.709479 2.796411 -28.467076 0.000001 -0.000001 0.000000 10.058160 -1.800604 -20.644710 1.774262 4.200480 -45.782072 0.000005 0.000002 0.000001 1.254223 -0.073713 -17.945779 3.754099 5.463642 -68.965294 -0.000001 -0.000000 -0.000001 -7.938247 1.609093 -6.495676 2.210568 4.583641 -51.475147 -0.000000 0.000000 -0.000000 10.571302 20.013224 -2.157005 0.000000 0.000000 0.000000 3.272272 35.427529 47.123961 70.645978 116.398936 -84.504282 -10.445469 22.183741 13.476855 13.942492 -4.273687 -5.300355 7.113163 -20.767450 -2.619510 -3.463296 -24.899767 -18.660456 -0.000001 -0.000002 -0.000002 0.357760 -5.832699 5.175845 0.094363 -0.933666 11.539905 0.000000 -0.000001 0.000001 3.764087 -12.080453 1.143781 5.714287 -4.535843 103.133575 0.000000 0.000000 -0.000002 -12.155601 -12.623914 9.228346 6.566866 -4.248469 114.232325 -0.000000 0.000000 -0.000001 -17.635770 -10.496855 3.325422 4.993645 -4.645046 94.147942 0.000000 -0.000002 0.000002 -26.201965 11.809530 17.079158 29.643260 13.441559 -0.203677 5.322227 0.005310 -8.949911 -0.176446 0.105981 0.221271 -0.000000 -0.000001 -0.000000 -24.089532 -15.272190 -23.605509 39.130492 -5.747026 -1.865544 -9.415427 1.909003 9.896837 2.853609 0.034037 4.198985 0.000000 0.000000 -0.000000 
-0.168750 94.850456 1.021487 -9.974484 -51.749133 -5.860517 5.204556 0.383771 0.493731 4.875919 0.893837 0.313337 0.000000 0.000000 0.000000 8.471698 1.741680 0.006408 2.611685 5.795512 -0.175235 2.871610 40.218500 -7.339834 0.000001 -0.000000 -0.000000 8.936009 -24.743303 -2.968073 0.000000 0.000000 0.000000 -27.022583 9.098558 -59.788744 -91.418141 12.788473 -85.389686 -28.033251 -6.726865 -5.796752 0.699127 9.503384 -2.418117 5.975196 12.647542 1.348331 -23.873562 -17.664220 1.604931 0.000002 -0.000002 0.000001 9.479712 -1.289774 -20.785567 0.709479 2.796412 -28.467072 0.000001 -0.000001 -0.000000 10.058160 -1.800603 -20.644715 1.774261 4.200483 -45.782072 0.000001 -0.000002 0.000003 1.254227 -0.073708 -17.945779 3.754099 5.463638 -68.965294 0.000001 -0.000001 -0.000001 -7.938249 1.609090 -6.495676 2.210569 4.583646 -51.475147 0.000003 0.000000 0.000001 10.565200 19.946550 -2.142263 0.000000 0.000000 0.000000 2.607384 35.855153 47.333570 71.764654 116.208374 -85.770961 -10.570396 21.998960 13.615190 13.942492 -4.273687 -5.300357 7.113163 -20.767451 -2.619510 -3.463297 -24.899767 -18.660454 -0.000001 -0.000002 0.000001 0.357761 -5.832699 5.175847 0.094364 -0.933668 11.539900 0.000001 0.000000 -0.000000 3.764090 -12.080453 1.143782 5.714287 -4.535842 103.133575 0.000000 -0.000000 0.000000 -12.155602 -12.623916 9.228342 6.566866 -4.248470 114.232325 0.000000 -0.000001 0.000001 -17.635767 -10.496855 3.325425 4.993644 -4.645043 94.147942 0.000001 -0.000001 0.000001 -27.360517 11.627055 16.817662 31.188672 12.220556 -0.560241 4.531996 -0.021266 -8.306182 -0.159901 0.111342 0.200534 0.000000 0.000000 0.000000 -25.634865 -12.429328 -24.139640 43.118370 -7.438789 -1.199706 -8.587861 1.730469 9.501124 2.464599 -2.396155 5.551930 0.000000 0.000000 -0.000000 
-0.067289 94.520706 1.646436 -9.589266 -50.325582 -5.436713 5.203333 0.370080 0.455437 4.870109 0.829821 0.304667 0.000000 0.000000 0.000000 8.520206 2.710895 -0.072873 2.689524 6.030631 -0.142776 3.412320 43.413939 -7.365484 0.000000 0.000000 -0.000001 8.936032 -24.743298 -2.968072 0.000000 0.000000 0.000000 -27.403882 9.241057 -59.623057 -91.512842 12.777752 -84.960525 -28.164041 -6.454043 -5.810564 0.699126 9.503385 -2.418118 5.975196 12.647536 1.348332 -23.873558 -17.664222 1.604930 0.000004 0.000002 0.000001 9.479712 -1.289774 -20.785569 0.709480 2.796408 -28.467072 -0.000001 0.000000 -0.000000 10.058158 -1.800601 -20.644713 1.774267 4.200484 -45.782075 -0.000001 0.000000 -0.000001 1.254224 -0.073709 -17.945777 3.754099 5.463642 -68.965287 -0.000001 0.000000 0.000001 -7.938247 1.609091 -6.495675 2.210568 4.583643 -51.475150 -0.000002 -0.000001 -0.000000 10.560322 19.868216 -2.125412 0.000000 0.000000 0.000000 2.003522 36.236100 47.517155 72.763617 116.049750 -86.902532 -10.678803 21.824893 13.770449 13.942492 -4.273686 -5.300356 7.113163 -20.767450 -2.619511 -3.463295 -24.899772 -18.660456 -0.000002 0.000000 0.000000 0.357761 -5.832701 5.175846 0.094364 -0.933668 11.539904 0.000001 -0.000000 -0.000002 3.764090 -12.080454 1.143781 5.714286 -4.535844 103.133575 0.000000 -0.000000 -0.000004 -12.155601 -12.623916 9.228343 6.566867 -4.248469 114.232325 -0.000001 -0.000001 0.000002 -17.635770 -10.496855 3.325423 4.993645 -4.645045 94.147942 -0.000000 0.000001 0.000002 -28.575674 11.431560 16.597548 32.864306 11.001673 -0.998448 3.690435 -0.067784 -7.596396 -0.149101 0.115169 0.186980 0.000000 0.000003 0.000000 -27.255289 -9.261055 -24.191159 47.201279 -9.004771 -0.808782 -7.288344 1.358331 9.469546 1.334982 -4.570550 7.013379 -0.000000 0.000000 -0.000000 
